<?xml version="1.0" standalone="no"?>
<!DOCTYPE svg PUBLIC "-//W3C//DTD SVG 20010904//EN"
 "http://www.w3.org/TR/2001/REC-SVG-20010904/DTD/svg10.dtd">
<svg version="1.0" xmlns="http://www.w3.org/2000/svg"
 width="1920.000000pt" height="725.000000pt" viewBox="0 0 1920.000000 725.000000"
 preserveAspectRatio="xMidYMid meet">

<g transform="translate(0.000000,725.000000) scale(0.100000,-0.100000)"
fill="#000000" stroke="none">
<path d="M2458 6122 l-1348 -986 0 -1979 c0 -1089 -2 -1978 -4 -1976 -3 2
-185 591 -405 1308 -220 717 -402 1306 -405 1309 -3 3 -35 -3 -71 -13 -52 -14
-65 -21 -60 -34 2 -9 246 -801 541 -1761 295 -960 538 -1747 540 -1749 2 -2 4
1082 4 2410 l1 2414 1205 880 c663 484 1209 882 1215 883 5 2 9 -187 9 -491
l0 -495 -495 -353 -495 -354 2 -2270 3 -2270 67 -3 68 -3 2 2238 3 2237 415
298 c228 163 418 297 423 297 4 1 7 -1140 7 -2534 l0 -2536 68 3 67 3 3 2586
2 2587 744 531 c409 292 746 531 750 531 3 0 7 -1509 8 -3354 l3 -3354 533
1811 c293 997 532 1817 532 1824 0 12 -104 47 -123 40 -5 -1 -184 -595 -397
-1319 -213 -724 -391 -1329 -396 -1344 -5 -17 -11 1204 -14 2974 l-5 3002
-812 -580 c-447 -319 -814 -580 -817 -580 -4 0 -6 261 -6 580 0 319 -3 580 -7
579 -5 0 -614 -444 -1355 -987z"/>
<path d="M11651 4628 l-1 -1828 75 0 75 0 0 1542 0 1542 801 -1514 c441 -833
805 -1518 808 -1523 4 -4 369 677 812 1512 l804 1520 3 -1585 2 -1584 70 0 70
0 0 1873 -1 1872 -29 -55 c-404 -771 -1719 -3242 -1726 -3242 -5 -1 -396 731
-870 1625 -473 893 -868 1635 -877 1648 -15 22 -16 -107 -16 -1803z"/>
<path d="M15787 6219 c-32 -16 -56 -33 -54 -37 2 -4 374 -793 828 -1754 453
-962 826 -1748 829 -1748 7 1 1564 3509 1559 3514 -9 7 -122 56 -125 54 -2 -3
-1394 -3133 -1421 -3198 l-15 -35 -38 75 c-20 41 -365 769 -765 1618 -401 848
-731 1542 -734 1542 -3 -1 -32 -14 -64 -31z"/>
<path d="M7967 6179 c-33 -17 -57 -35 -54 -42 20 -52 1652 -3497 1656 -3497
11 1 1561 3504 1554 3511 -5 4 -33 19 -64 33 l-56 24 -698 -1571 c-384 -865
-708 -1592 -720 -1617 l-23 -44 -64 134 c-35 74 -378 802 -763 1617 -385 816
-702 1483 -705 1482 -3 0 -31 -14 -63 -30z"/>
<path d="M10333 1511 c-157 -58 -253 -190 -261 -362 -9 -182 73 -326 227 -398
50 -23 68 -26 167 -26 108 0 113 1 182 36 l70 36 41 -40 c40 -40 40 -41 61
-22 l21 19 -42 42 -42 43 27 36 c90 117 105 293 39 434 -35 73 -117 155 -190
189 -78 36 -222 42 -300 13z m271 -64 c73 -34 117 -76 156 -149 29 -54 35 -75
38 -150 5 -98 -11 -162 -55 -230 l-26 -39 -47 46 -46 46 -19 -21 c-18 -20 -18
-21 25 -65 24 -25 42 -47 39 -49 -2 -2 -29 -17 -59 -32 -47 -24 -67 -28 -140
-29 -71 0 -94 4 -140 26 -80 37 -125 81 -162 157 -31 62 -33 74 -33 167 0 87
3 107 26 156 80 169 275 242 443 166z"/>
<path d="M15289 1507 c-140 -59 -224 -166 -248 -317 -28 -176 62 -359 216
-435 75 -37 212 -47 295 -20 77 24 134 66 130 95 -1 13 -4 25 -6 27 -2 2 -29
-12 -60 -31 -179 -108 -394 -49 -483 133 -25 51 -28 66 -28 166 0 95 3 116 23
157 36 71 93 130 158 163 50 25 71 29 140 29 73 1 87 -2 154 -36 54 -26 77
-33 82 -25 19 30 6 47 -59 79 -59 29 -78 33 -162 36 -83 2 -104 -1 -152 -21z"/>
<path d="M17393 1516 c-146 -47 -249 -171 -275 -332 -29 -172 63 -352 219
-429 75 -37 213 -47 295 -21 156 50 262 189 275 361 13 172 -74 326 -227 399
-56 27 -78 31 -155 33 -55 2 -106 -3 -132 -11z m251 -65 c67 -29 139 -102 170
-171 84 -188 9 -400 -171 -483 -74 -34 -199 -31 -274 6 -178 87 -245 306 -153
494 73 151 273 223 428 154z"/>
<path d="M18535 1516 c-93 -41 -138 -151 -99 -244 24 -58 61 -90 169 -144 165
-82 195 -115 195 -206 0 -90 -68 -152 -165 -152 -73 1 -130 30 -163 84 -28 46
-37 52 -61 37 -19 -12 -6 -46 38 -94 50 -56 100 -77 186 -77 142 0 225 78 225
210 0 100 -45 153 -194 227 -50 25 -106 56 -124 70 -116 87 -58 253 88 253 56
0 99 -20 138 -64 27 -31 38 -37 58 -32 23 6 24 8 10 34 -20 38 -65 78 -108 96
-45 19 -152 20 -193 2z"/>
<path d="M8234 1448 c-15 -40 -83 -217 -150 -393 l-123 -320 26 -3 c14 -2 29
0 33 5 4 4 29 68 56 140 l49 133 165 0 165 0 22 -57 c12 -32 36 -95 53 -140
30 -79 33 -83 62 -83 25 0 29 3 23 18 -4 9 -69 179 -145 377 -76 198 -141 368
-145 378 -4 10 -18 17 -35 17 -26 0 -31 -6 -56 -72z m125 -180 c35 -95 66
-179 68 -185 4 -10 -27 -13 -137 -13 -78 0 -140 4 -138 8 2 5 32 88 68 185 36
97 67 177 70 177 3 0 34 -78 69 -172z"/>
<path d="M9130 1124 l0 -395 28 3 27 3 2 175 2 175 78 3 78 2 94 -180 c93
-179 94 -180 127 -180 l33 0 -42 78 c-23 42 -67 124 -99 182 -50 92 -55 106
-41 115 41 25 97 83 110 112 16 39 17 131 2 170 -5 15 -27 45 -47 66 -49 51
-108 67 -244 67 l-108 0 0 -396z m272 319 c50 -29 78 -77 78 -135 0 -117 -82
-175 -233 -166 l-58 3 0 158 c0 86 1 159 1 162 0 3 40 3 89 1 66 -2 99 -9 123
-23z"/>
<path d="M11400 1232 c0 -313 5 -352 54 -417 15 -19 48 -47 73 -62 62 -36 198
-45 270 -18 63 24 116 75 144 138 23 51 24 59 24 347 l0 295 -27 3 -27 3 -3
-293 c-3 -274 -4 -296 -24 -339 -38 -82 -122 -126 -224 -116 -99 9 -160 53
-188 136 -8 23 -12 131 -12 322 l0 289 -30 0 -30 0 0 -288z"/>
<path d="M12550 1515 c0 -3 0 -179 0 -392 l-1 -388 26 -3 25 -3 0 395 0 396
-25 0 c-14 0 -25 -2 -25 -5z"/>
<path d="M13120 1493 l0 -28 110 2 110 2 0 -370 0 -369 30 0 30 0 2 368 3 367
110 2 110 2 3 25 3 26 -255 0 -256 0 0 -27z"/>
<path d="M14160 1125 l0 -395 185 0 185 0 0 25 0 25 -155 0 -155 0 0 165 0
165 130 0 130 0 0 25 0 25 -130 0 -130 0 0 154 0 155 148 0 147 0 3 25 3 26
-180 0 -181 0 0 -395z"/>
<path d="M16152 1494 l3 -25 110 -2 110 -2 3 -367 2 -368 30 0 30 0 2 368 3
367 110 2 c108 1 110 1 110 25 l0 23 -258 3 -258 2 3 -26z"/>
</g>
</svg>
